# xmcd CD database file
#
# Track frame offsets:
#	150
#	24513
#	59412
#	81623
#	111796
#	142254
#	170439
#
# Disc length: 2612 seconds
#
# Revision: 0
# Processed by: cddbd v1.5.2PL0 Copyright (c) Steve Scherf et al.
# Submitted via: NeoAudio 9.9.9
#
DISCID=630a3207
DTITLE=Relaxing Melodies - The Island Of Java
DYEAR=1900
DGENRE=New Age
TTITLE0=Island Of Life
TTITLE1=Tales Of Times Past
TTITLE2=Gamelan Lullabye
TTITLE3=Lada Bay
TTITLE4=Krakatoa
TTITLE5=Rainy Season
TTITLE6=Skyline At Dusk
EXTD=
EXTT0=
EXTT1=
EXTT2=
EXTT3=
EXTT4=
EXTT5=
EXTT6=
PLAYORDER=
